<mxfile host="Electron" modified="2024-06-25T12:52:12.310Z" agent="Mozilla/5.0 (X11; Linux x86_64) AppleWebKit/537.36 (KHTML, like Gecko) draw.io/24.4.0 Chrome/120.0.6099.291 Electron/28.3.3 Safari/537.36" etag="JbnfO7VDAdBE5M4hoknM" version="24.3.1" type="device">
  <diagram name="ipxe-boot-flow" id="waToT-_TQXdz1UbK6SKb">
    <mxGraphModel dx="817" dy="656" grid="1" gridSize="10" guides="1" tooltips="1" connect="1" arrows="1" fold="1" page="1" pageScale="1" pageWidth="850" pageHeight="1100" background="none" math="0" shadow="0">
      <root>
        <mxCell id="0" />
        <mxCell id="1" parent="0" />
        <mxCell id="Em4UhEbblT2qE73hykcX-1" value="" style="rounded=1;whiteSpace=wrap;html=1;align=left;fillColor=#dae8fc;strokeColor=#6c8ebf;" parent="1" vertex="1">
          <mxGeometry x="425" y="160" width="195" height="360" as="geometry" />
        </mxCell>
        <mxCell id="Tgo-EIQqhHf8mCCOI4vc-4" value="Client" style="rounded=0;whiteSpace=wrap;html=1;horizontal=1;align=left;verticalAlign=top;fillColor=#d5e8d4;strokeColor=#82b366;" parent="1" vertex="1">
          <mxGeometry x="160" y="160" width="160" height="360" as="geometry" />
        </mxCell>
        <UserObject label="PXE client" link="https://www.westerndigital.com/ja-jp/products/internal-drives/wd-red-pro-sata-hdd?sku=WD6003FFBX" id="Tgo-EIQqhHf8mCCOI4vc-6">
          <mxCell style="rounded=1;whiteSpace=wrap;html=1;verticalAlign=top;align=center;spacingLeft=0;fillColor=#0050ef;fontColor=#ffffff;strokeColor=#001DBC;" parent="1" vertex="1">
            <mxGeometry x="170" y="190" width="140" height="110" as="geometry" />
          </mxCell>
        </UserObject>
        <mxCell id="Tgo-EIQqhHf8mCCOI4vc-7" value="&lt;font color=&quot;#ffffff&quot;&gt;# .env&lt;br&gt;IP_IPXE_SERVER=x.x.x.x&lt;br&gt;IP_NEXT_SERVER=y.y.y.y&lt;br&gt;...&lt;/font&gt;" style="shape=note;whiteSpace=wrap;html=1;backgroundOutline=1;darkOpacity=0.05;align=left;spacingLeft=4;fillColor=#1A1A1A;strokeColor=#FFFFFF;" parent="1" vertex="1">
          <mxGeometry x="680" y="160" width="170" height="130" as="geometry" />
        </mxCell>
        <mxCell id="Tgo-EIQqhHf8mCCOI4vc-9" value="" style="endArrow=classic;html=1;rounded=0;strokeColor=#FFFFFF;" parent="1" edge="1">
          <mxGeometry width="50" height="50" relative="1" as="geometry">
            <mxPoint x="620" y="190" as="sourcePoint" />
            <mxPoint x="680" y="190" as="targetPoint" />
          </mxGeometry>
        </mxCell>
        <mxCell id="Tgo-EIQqhHf8mCCOI4vc-10" value="&lt;font color=&quot;#ffffff&quot; style=&quot;font-size: 12px;&quot;&gt;(1)&lt;/font&gt;" style="text;html=1;strokeColor=none;fillColor=none;align=center;verticalAlign=middle;whiteSpace=wrap;rounded=0;" parent="1" vertex="1">
          <mxGeometry x="630" y="160" width="40" height="30" as="geometry" />
        </mxCell>
        <mxCell id="Tgo-EIQqhHf8mCCOI4vc-11" value="" style="endArrow=classic;html=1;rounded=0;strokeColor=#FFFFFF;" parent="1" edge="1">
          <mxGeometry width="50" height="50" relative="1" as="geometry">
            <mxPoint x="680" y="200" as="sourcePoint" />
            <mxPoint x="620" y="200" as="targetPoint" />
          </mxGeometry>
        </mxCell>
        <mxCell id="Tgo-EIQqhHf8mCCOI4vc-1" value="iPXE server&lt;br&gt;(include DHCP)" style="rounded=0;whiteSpace=wrap;html=1;verticalAlign=top;align=left;spacingLeft=4;strokeColor=#d6b656;fillColor=#fff2cc;" parent="1" vertex="1">
          <mxGeometry x="460" y="190" width="120" height="140" as="geometry" />
        </mxCell>
        <mxCell id="Tgo-EIQqhHf8mCCOI4vc-3" value="Image server&lt;br&gt;(next-server)" style="rounded=0;whiteSpace=wrap;html=1;verticalAlign=top;align=left;spacingLeft=4;strokeColor=#b85450;fillColor=#f8cecc;" parent="1" vertex="1">
          <mxGeometry x="460" y="350" width="120" height="140" as="geometry" />
        </mxCell>
        <mxCell id="Tgo-EIQqhHf8mCCOI4vc-14" value="&lt;font color=&quot;#ffffff&quot; style=&quot;font-size: 12px;&quot;&gt;(2)&lt;/font&gt;" style="text;html=1;strokeColor=none;fillColor=none;align=center;verticalAlign=middle;whiteSpace=wrap;rounded=0;" parent="1" vertex="1">
          <mxGeometry x="330" y="190" width="40" height="30" as="geometry" />
        </mxCell>
        <mxCell id="Tgo-EIQqhHf8mCCOI4vc-15" value="" style="endArrow=classic;html=1;rounded=0;strokeColor=#000000;" parent="1" edge="1">
          <mxGeometry width="50" height="50" relative="1" as="geometry">
            <mxPoint x="310" y="220" as="sourcePoint" />
            <mxPoint x="460" y="220" as="targetPoint" />
          </mxGeometry>
        </mxCell>
        <mxCell id="Tgo-EIQqhHf8mCCOI4vc-16" value="" style="endArrow=classic;html=1;rounded=0;strokeColor=#000000;fillColor=#f5f5f5;" parent="1" edge="1">
          <mxGeometry width="50" height="50" relative="1" as="geometry">
            <mxPoint x="460" y="230" as="sourcePoint" />
            <mxPoint x="310" y="230" as="targetPoint" />
          </mxGeometry>
        </mxCell>
        <mxCell id="Em4UhEbblT2qE73hykcX-2" value="&lt;font color=&quot;#ffffff&quot; style=&quot;font-size: 12px;&quot;&gt;(3)&lt;/font&gt;" style="text;html=1;strokeColor=none;fillColor=none;align=center;verticalAlign=middle;whiteSpace=wrap;rounded=0;" parent="1" vertex="1">
          <mxGeometry x="330" y="240" width="40" height="30" as="geometry" />
        </mxCell>
        <mxCell id="Em4UhEbblT2qE73hykcX-3" value="" style="endArrow=classic;html=1;rounded=0;strokeColor=#000000;" parent="1" edge="1">
          <mxGeometry width="50" height="50" relative="1" as="geometry">
            <mxPoint x="310" y="270" as="sourcePoint" />
            <mxPoint x="460" y="270" as="targetPoint" />
          </mxGeometry>
        </mxCell>
        <mxCell id="Em4UhEbblT2qE73hykcX-4" value="" style="endArrow=classic;html=1;rounded=0;strokeColor=#000000;" parent="1" edge="1">
          <mxGeometry width="50" height="50" relative="1" as="geometry">
            <mxPoint x="460" y="280" as="sourcePoint" />
            <mxPoint x="310" y="280" as="targetPoint" />
          </mxGeometry>
        </mxCell>
        <mxCell id="Em4UhEbblT2qE73hykcX-5" value="" style="endArrow=classic;html=1;rounded=0;strokeColor=#000000;" parent="1" edge="1">
          <mxGeometry width="50" height="50" relative="1" as="geometry">
            <mxPoint x="200" y="300" as="sourcePoint" />
            <mxPoint x="200" y="360" as="targetPoint" />
          </mxGeometry>
        </mxCell>
        <mxCell id="Em4UhEbblT2qE73hykcX-6" value="Reboot with &lt;br&gt;&amp;nbsp; iPXE firmware" style="text;html=1;strokeColor=none;fillColor=none;align=left;verticalAlign=middle;whiteSpace=wrap;rounded=0;" parent="1" vertex="1">
          <mxGeometry x="210" y="310" width="110" height="30" as="geometry" />
        </mxCell>
        <UserObject label="iPXE client" link="https://www.westerndigital.com/ja-jp/products/internal-drives/wd-red-pro-sata-hdd?sku=WD6003FFBX" id="Em4UhEbblT2qE73hykcX-7">
          <mxCell style="rounded=1;whiteSpace=wrap;html=1;verticalAlign=top;align=center;spacingLeft=0;fillColor=#d80073;fontColor=#ffffff;strokeColor=#A50040;" parent="1" vertex="1">
            <mxGeometry x="170" y="350" width="140" height="140" as="geometry" />
          </mxCell>
        </UserObject>
        <mxCell id="Em4UhEbblT2qE73hykcX-8" value="&lt;font color=&quot;#ffffff&quot; style=&quot;font-size: 12px;&quot;&gt;(4)&lt;/font&gt;" style="text;html=1;strokeColor=none;fillColor=none;align=center;verticalAlign=middle;whiteSpace=wrap;rounded=0;" parent="1" vertex="1">
          <mxGeometry x="312" y="330" width="40" height="30" as="geometry" />
        </mxCell>
        <mxCell id="Em4UhEbblT2qE73hykcX-9" value="" style="endArrow=classic;html=1;rounded=0;strokeColor=#000000;" parent="1" edge="1">
          <mxGeometry width="50" height="50" relative="1" as="geometry">
            <mxPoint x="310" y="371" as="sourcePoint" />
            <mxPoint x="460" y="300" as="targetPoint" />
          </mxGeometry>
        </mxCell>
        <mxCell id="Em4UhEbblT2qE73hykcX-10" value="" style="endArrow=classic;html=1;rounded=0;strokeColor=#000000;" parent="1" edge="1">
          <mxGeometry width="50" height="50" relative="1" as="geometry">
            <mxPoint x="460" y="310" as="sourcePoint" />
            <mxPoint x="310" y="380" as="targetPoint" />
          </mxGeometry>
        </mxCell>
        <mxCell id="Em4UhEbblT2qE73hykcX-11" value="&lt;font color=&quot;#ffffff&quot; style=&quot;font-size: 12px;&quot;&gt;(5)&lt;/font&gt;" style="text;html=1;strokeColor=none;fillColor=none;align=center;verticalAlign=middle;whiteSpace=wrap;rounded=0;" parent="1" vertex="1">
          <mxGeometry x="340" y="370" width="40" height="30" as="geometry" />
        </mxCell>
        <mxCell id="Em4UhEbblT2qE73hykcX-12" value="" style="endArrow=classic;html=1;rounded=0;strokeColor=#000000;" parent="1" edge="1">
          <mxGeometry width="50" height="50" relative="1" as="geometry">
            <mxPoint x="310" y="400" as="sourcePoint" />
            <mxPoint x="460" y="400" as="targetPoint" />
          </mxGeometry>
        </mxCell>
        <mxCell id="Em4UhEbblT2qE73hykcX-13" value="" style="endArrow=classic;html=1;rounded=0;strokeColor=#000000;" parent="1" edge="1">
          <mxGeometry width="50" height="50" relative="1" as="geometry">
            <mxPoint x="460" y="410" as="sourcePoint" />
            <mxPoint x="310" y="410" as="targetPoint" />
          </mxGeometry>
        </mxCell>
        <mxCell id="Em4UhEbblT2qE73hykcX-14" value="iPXE boot menu" style="rounded=0;whiteSpace=wrap;html=1;fillColor=#60a917;fontColor=#ffffff;strokeColor=#2D7600;" parent="1" vertex="1">
          <mxGeometry x="180" y="420" width="120" height="20" as="geometry" />
        </mxCell>
        <mxCell id="Em4UhEbblT2qE73hykcX-15" value="&lt;font color=&quot;#ffffff&quot; style=&quot;font-size: 12px;&quot;&gt;(6)&lt;/font&gt;" style="text;html=1;strokeColor=none;fillColor=none;align=center;verticalAlign=middle;whiteSpace=wrap;rounded=0;" parent="1" vertex="1">
          <mxGeometry x="340" y="430" width="40" height="30" as="geometry" />
        </mxCell>
        <mxCell id="Em4UhEbblT2qE73hykcX-16" value="" style="endArrow=classic;html=1;rounded=0;strokeColor=#000000;" parent="1" edge="1">
          <mxGeometry width="50" height="50" relative="1" as="geometry">
            <mxPoint x="310" y="460" as="sourcePoint" />
            <mxPoint x="460" y="460" as="targetPoint" />
          </mxGeometry>
        </mxCell>
        <mxCell id="Em4UhEbblT2qE73hykcX-17" value="" style="endArrow=classic;html=1;rounded=0;strokeColor=#000000;" parent="1" edge="1">
          <mxGeometry width="50" height="50" relative="1" as="geometry">
            <mxPoint x="460" y="470" as="sourcePoint" />
            <mxPoint x="310" y="470" as="targetPoint" />
          </mxGeometry>
        </mxCell>
        <mxCell id="6388oxwnZF46jZnA-1td-1" value="(0) Run docker-compose first.&lt;br style=&quot;&quot;&gt;(1) Read variables from .env. iPXE server will find an IP of next-server when read it. docker-compose will boot iPXE server and image server after read it.&lt;br style=&quot;&quot;&gt;(2) When a client has started, it will broadcast DHCP. iPXE server returns IP of client, IP of gateway etc and a URL of iPXE firmware if the client is PXE (not iPXE).&lt;br style=&quot;&quot;&gt;(3) A client obtain a firmware of iPXE with TFTP. The firmware might be located in another server.&lt;br style=&quot;&quot;&gt;(4) After the client rebooted as iPXE client, iPXE client will broadcast DHCP. iPXE server returns IP of client, IP of gateway etc and a URL of OS images.&lt;br style=&quot;&quot;&gt;(5) Obtain iPXE script with HTTP or tftp etc. Image server returns an iPXE script and client will enter an iPXE boot menu.&lt;br style=&quot;&quot;&gt;&lt;div style=&quot;&quot;&gt;(6) iPXE client requests an OS image that the user has choosen on iPXE boot menu. The image server returns an image. A client will boot by using the image.&amp;nbsp;&lt;/div&gt;" style="rounded=0;whiteSpace=wrap;html=1;strokeColor=none;align=left;fillColor=none;" parent="1" vertex="1">
          <mxGeometry x="160" y="526" width="680" height="180" as="geometry" />
        </mxCell>
      </root>
    </mxGraphModel>
  </diagram>
</mxfile>
